<svg width="69" height="68" viewBox="0 0 69 68" fill="none" xmlns="http://www.w3.org/2000/svg">
<path d="M34.4614 27.678C39.8794 27.678 42.7095 27.6574 44.1918 27.4709C44.95 27.3755 45.2356 27.247 45.3452 27.1526C45.4024 27.1032 45.4477 27.04 45.4477 26.7229C45.4477 25.4401 45.2281 24.5621 44.7084 23.8362C44.1785 23.0959 43.293 22.4514 41.8237 21.7356L41.812 21.7297C40.8538 21.2315 40.09 20.8066 39.5229 20.4075C38.9622 20.0129 38.5332 19.6022 38.3198 19.1106C38.0936 18.5896 38.1444 18.0629 38.3578 17.5256C38.5641 17.0066 38.9379 16.4359 39.4184 15.7825L39.4213 15.7786C40.4732 14.3761 40.9301 12.7461 40.9301 9.18579V9.17798C40.9681 6.82187 40.7552 5.14021 40.3325 4.06567C40.1232 3.53394 39.8739 3.18036 39.6059 2.96118C39.3461 2.74881 39.0431 2.64093 38.6733 2.64087C38.2667 2.64087 37.8252 2.44941 37.4545 2.2229C37.0684 1.98688 36.6847 1.66716 36.3823 1.32153L36.3803 1.31958C35.9081 0.774773 35.6259 0.57981 35.2123 0.519775C34.7296 0.449745 34.0232 0.555134 32.6723 0.863525C32.314 0.962308 31.7868 1.20405 31.226 1.54419C30.667 1.8833 30.1081 2.29986 29.684 2.72388L29.6752 2.73267L29.6655 2.74146L29.4828 2.92407C29.066 3.38573 28.7122 4.08838 28.4496 4.98267C28.1526 5.99476 27.9866 7.20571 27.9633 8.47778C27.9165 11.0366 28.4457 13.7451 29.5268 15.511L29.5258 15.512C29.9848 16.2578 30.3419 16.8902 30.5385 17.4465C30.7395 18.0157 30.7934 18.5596 30.5786 19.0901C30.3718 19.6005 29.9485 20.0162 29.3901 20.4124C28.8277 20.8113 28.0675 21.2322 27.1108 21.7297L27.0991 21.7356L26.5746 22.0002C25.4133 22.6134 24.6771 23.1884 24.2133 23.8362C23.6937 24.562 23.4741 25.4402 23.4741 26.7229C23.4741 27.0395 23.5194 27.1032 23.5766 27.1526C23.6862 27.247 23.9723 27.3755 24.7309 27.4709C26.2132 27.6574 29.0432 27.678 34.4614 27.678Z" fill="#5400FE" stroke="#5400FE"/>
<path d="M6.25024 37.5225C6.38916 37.5551 6.61706 37.5449 7.05396 37.4854C7.39451 37.431 7.60054 37.3659 7.74927 37.2715C7.88431 37.1856 8.01293 37.0481 8.13599 36.7598C8.26453 36.4585 8.37646 36.016 8.47974 35.3506C8.55665 34.855 8.62716 34.2518 8.69751 33.5137L8.76782 32.7295C9.00074 29.9369 9.85208 26.4275 10.5754 24.9004L10.5793 24.8916L10.5842 24.8838C11.5706 22.99 13.1938 20.8833 15.0071 19.0312C16.8136 17.1861 18.8428 15.5596 20.6682 14.6436V14.6426C21.5646 14.157 22.2232 13.6886 22.6516 13.2432C23.0803 12.7973 23.2395 12.4166 23.2395 12.0957C23.2395 11.6337 23.0953 11.4031 22.9192 11.2783C22.7189 11.1367 22.3623 11.0487 21.7893 11.1182C20.6433 11.2572 18.9417 11.9899 16.8948 13.3545L16.8918 13.3564C9.90933 17.9365 5.8606 25.4385 5.8606 33.6152C5.8606 34.7091 5.86503 35.5284 5.89771 36.1445C5.93108 36.7737 5.99199 37.1312 6.07349 37.335C6.11059 37.4277 6.14324 37.4658 6.1604 37.4814C6.17475 37.4945 6.19755 37.51 6.25024 37.5225Z" fill="#5400FE" stroke="#5400FE"/>
<path d="M61.1674 37.5234C61.2116 37.5126 61.2291 37.4993 61.2407 37.4883C61.2558 37.4738 61.2875 37.4362 61.3237 37.3418C61.4028 37.1354 61.4614 36.775 61.4936 36.1455C61.5251 35.5288 61.5307 34.7089 61.5307 33.6152C61.5307 25.6939 57.7307 18.4056 51.145 13.7939L50.4985 13.3564L50.4916 13.3516C49.4821 12.6659 48.6658 12.1504 47.9975 11.7891C47.3236 11.4246 46.8322 11.2347 46.4672 11.1719C46.1201 11.1122 45.9223 11.1721 45.7778 11.2764C45.6127 11.3955 45.4442 11.6244 45.268 12.043C45.1595 12.3814 45.1778 12.6854 45.312 12.9805C45.4541 13.2931 45.7427 13.6303 46.2309 13.9805C48.3305 15.4191 50.5185 17.3183 52.3745 19.2129C54.2242 21.1012 55.775 23.0166 56.5737 24.4941L56.5776 24.501L56.5805 24.5078C57.4593 26.2654 58.3902 29.9318 58.6235 32.7314L58.6225 32.7324C58.718 33.8394 58.808 34.6908 58.9116 35.3506C59.0159 36.0151 59.1305 36.4546 59.2621 36.7539C59.3877 37.0392 59.5204 37.1784 59.6655 37.2666C59.8274 37.365 60.0523 37.4303 60.4194 37.4854L60.4184 37.4863C60.8352 37.5458 61.0439 37.5537 61.1674 37.5234Z" fill="#5400FE" stroke="#5400FE"/>
<path d="M11.8701 67.4998C15.3874 67.4998 18.3432 67.4228 20.415 67.2898C21.4533 67.2231 22.2566 67.1436 22.7939 67.0544C22.9779 67.0239 23.1192 66.9912 23.2236 66.9636C23.1438 66.1739 22.7268 65.2408 22.0127 64.3132C21.2228 63.2873 20.1092 62.3182 18.8301 61.6238L18.8213 61.6189C17.845 61.0638 17.0739 60.6007 16.5059 60.1785C15.9454 59.7618 15.5209 59.3415 15.3145 58.8513C15.0939 58.3275 15.1549 57.8078 15.377 57.2839C15.5901 56.7813 15.9698 56.2317 16.4473 55.6013V55.6003C17.4991 54.1978 17.9561 52.5679 17.9561 49.0076V48.9998C17.9941 46.6436 17.7812 44.962 17.3584 43.8875C17.1491 43.3557 16.8998 43.0021 16.6318 42.783C16.3721 42.5706 16.0691 42.4627 15.6992 42.4626C15.2927 42.4626 14.8511 42.2712 14.4805 42.0447C14.0943 41.8087 13.7107 41.4889 13.4082 41.1433L13.4062 41.1414C12.9341 40.5965 12.6519 40.4016 12.2383 40.3416C11.7555 40.2715 11.0492 40.3769 9.69824 40.6853C9.33994 40.7841 8.81272 41.0258 8.25195 41.366C7.69294 41.7051 7.13403 42.1216 6.70996 42.5457L6.70117 42.5544L6.69141 42.5632L6.50879 42.7458C6.09193 43.2075 5.73814 43.9102 5.47559 44.8044C5.17849 45.8165 5.01256 47.0275 4.98926 48.2996C4.94246 50.8584 5.47159 53.5669 6.55273 55.3328L6.55176 55.3337C7.01071 56.0796 7.36788 56.712 7.56445 57.2683C7.76548 57.8374 7.81936 58.3814 7.60449 58.9119C7.39771 59.4222 6.97443 59.838 6.41602 60.2341C5.85363 60.6331 5.09347 61.054 4.13672 61.5515L4.125 61.5574L3.60059 61.822C2.43922 62.4351 1.70302 63.0102 1.23926 63.658C0.719683 64.3838 0.500006 65.262 0.5 66.5447C0.5 66.8602 0.544789 66.921 0.603516 66.9705C0.719131 67.0676 1.01867 67.1971 1.80273 67.2927C3.33411 67.4795 6.26097 67.4998 11.8701 67.4998Z" fill="#5400FE" stroke="#5400FE"/>
<path d="M56.2866 67.4998C59.8039 67.4998 62.7597 67.4228 64.8315 67.2898C65.8698 67.2231 66.6731 67.1436 67.2104 67.0544C67.3944 67.0239 67.5357 66.9912 67.6401 66.9636C67.5603 66.1739 67.1433 65.2408 66.4292 64.3132C65.6393 63.2873 64.5257 62.3182 63.2466 61.6238L63.2378 61.6189C62.2615 61.0638 61.4904 60.6007 60.9224 60.1785C60.3619 59.7618 59.9374 59.3415 59.731 58.8513C59.5104 58.3275 59.5714 57.8078 59.7935 57.2839C60.0066 56.7813 60.3863 56.2317 60.8638 55.6013V55.6003C61.9156 54.1978 62.3726 52.5679 62.3726 49.0076V48.9998C62.4106 46.6436 62.1977 44.962 61.7749 43.8875C61.5656 43.3557 61.3163 43.0021 61.0483 42.783C60.7886 42.5706 60.4856 42.4627 60.1157 42.4626C59.7092 42.4626 59.2676 42.2712 58.897 42.0447C58.5108 41.8087 58.1272 41.4889 57.8247 41.1433L57.8228 41.1414C57.3506 40.5965 57.0684 40.4016 56.6548 40.3416C56.172 40.2715 55.4657 40.3769 54.1147 40.6853C53.7564 40.7841 53.2292 41.0258 52.6685 41.366C52.1094 41.7051 51.5505 42.1216 51.1265 42.5457L51.1177 42.5544L51.1079 42.5632L50.9253 42.7458C50.5084 43.2075 50.1546 43.9102 49.8921 44.8044C49.595 45.8165 49.4291 47.0275 49.4058 48.2996C49.359 50.8584 49.8881 53.5669 50.9692 55.3328L50.9683 55.3337C51.4272 56.0796 51.7844 56.712 51.981 57.2683C52.182 57.8374 52.2359 58.3814 52.021 58.9119C51.8142 59.4222 51.3909 59.838 50.8325 60.2341C50.2701 60.6331 49.51 61.054 48.5532 61.5515L48.5415 61.5574L48.0171 61.822C46.8557 62.4351 46.1195 63.0102 45.6558 63.658C45.1362 64.3838 44.9165 65.262 44.9165 66.5447C44.9165 66.8602 44.9613 66.921 45.02 66.9705C45.1356 67.0676 45.4352 67.1971 46.2192 67.2927C47.7506 67.4795 50.6775 67.4998 56.2866 67.4998Z" fill="#5400FE" stroke="#5400FE"/>
<path d="M31.9457 60.4167C35.8621 60.5891 39.8508 60.4491 41.7592 59.9353V59.9363C43.8407 59.3684 45.275 58.6669 46.0072 57.9773C46.3693 57.6362 46.5153 57.3404 46.5394 57.1052C46.5615 56.8893 46.4892 56.6333 46.2064 56.3318C46.0051 56.149 45.8411 56.035 45.6791 55.9646C45.5187 55.8949 45.3351 55.8564 45.0824 55.864C44.5428 55.8804 43.7547 56.0987 42.3656 56.6003L42.3588 56.6023L41.9369 56.739C39.7712 57.4001 36.7343 57.7214 33.7328 57.7214C30.731 57.7214 27.6943 57.4003 25.5287 56.739L25.1097 56.6033C24.1421 56.2743 23.4637 56.0354 22.9486 55.8621C22.4294 55.6874 22.137 55.6007 21.9535 55.5701C21.8906 55.5596 21.8555 55.5606 21.8383 55.5613C21.837 55.5624 21.8358 55.5638 21.8344 55.5652C21.8217 55.5775 21.805 55.5952 21.7816 55.6218C21.7576 55.6492 21.7323 55.6797 21.6986 55.7195C21.6663 55.7576 21.6287 55.8017 21.5863 55.8494L21.5765 55.8611L21.5658 55.8708L21.4926 55.95C21.1469 56.3511 21.0815 56.8822 21.3041 57.45C21.5463 58.0672 22.1318 58.7073 23.0297 59.1218L23.0394 59.1267C23.6695 59.4332 24.8949 59.7176 26.5052 59.9451C28.0948 60.1696 29.9999 60.3311 31.9457 60.4167Z" fill="#5400FE" stroke="#5400FE"/>
</svg>
