<svg width="70" height="65" viewBox="0 0 70 65" fill="none" xmlns="http://www.w3.org/2000/svg">
<path d="M60.0472 2.58324V5.08818H54.4181L48.6902 5.16646L44.4436 9.78494C40.1971 14.4034 39.9996 14.4817 35.4568 14.4817C31.309 14.4817 30.4202 14.7948 26.4699 18.0043C22.6184 21.1355 21.6308 21.5269 17.7793 21.5269C14.6191 21.5269 12.3477 22.1531 9.18746 23.8752C6.8173 25.1277 4.05211 26.2236 2.96578 26.2236C1.87946 26.2236 0.793133 26.7716 0.398105 27.3978C-1.57703 31.5466 6.32351 32.3294 13.1377 28.572C16.4955 26.7716 18.5694 26.2236 22.2234 26.2236C26.6674 26.2236 27.4575 25.9105 31.4077 22.701C35.2593 19.5699 36.2468 19.1785 40.2959 19.1785C44.5424 19.1002 44.8387 18.9436 48.9865 14.4817C52.838 10.3329 53.7268 9.78494 56.6895 9.78494C59.8497 9.78494 60.0472 9.9415 60.0472 12.2899V14.8731L64.6888 11.1157L69.4291 7.43656L64.6888 3.75743L60.0472 1.71661e-05V2.58324Z" fill="#5400FE"/>
<path d="M60.8764 41.4296V64.22H65.4382H70V41.4296V18.6393H65.4382H60.8764V41.4296Z" fill="#5400FE"/>
<path d="M40.8041 45.9877V64.22H45.3659H49.9277V45.9877V27.7554H45.3659H40.8041V45.9877Z" fill="#5400FE"/>
<path d="M20.7318 50.5458V64.22H25.2936H29.8554V50.5458V36.8716H25.2936H20.7318V50.5458Z" fill="#5400FE"/>
<path d="M0.659439 55.1038V64.22H5.22123H9.78303V55.1038V45.9877H5.22123H0.659439V55.1038Z" fill="#5400FE"/>
</svg>
