<svg width="42" height="49" viewBox="0 0 42 49" fill="none" xmlns="http://www.w3.org/2000/svg">
<path d="M11.34 2.17024C3.71 5.95024 0 12.1802 0 21.3502C0 27.9302 1.61 31.8502 6.44 37.3102C9.03 40.2502 9.38 41.0902 9.66 44.8002L9.94 49.0002H14.77H19.6V38.3602V27.7202L17.01 25.0602C13.58 21.5602 14.7 20.7202 18.2 24.1502L21 26.8802L23.8 24.1502C27.3 20.7202 28.42 21.5602 24.99 25.0602L22.4 27.7202V38.3602V49.0002H27.3H32.2V46.2702C32.2 41.4402 32.97 39.5502 36.68 35.1402C40.95 30.1002 42 27.2302 42 20.5102C42 16.4502 41.65 14.9102 39.83 11.3402C36.12 3.78024 29.82 0.000244141 20.93 0.000244141C16.38 0.000244141 14.98 0.280243 11.34 2.17024Z" fill="#5400FE"/>
</svg>
