<svg width="54" height="59" viewBox="0 0 54 59" fill="none" xmlns="http://www.w3.org/2000/svg">
<path d="M44.2356 6.92527C39.2683 4.45378 33.1899 3 26.625 3C20.0601 3 13.9817 4.45378 9.0143 6.92527C6.57835 8.13728 5.36037 8.74329 4.1802 10.6487C3 12.5541 3 14.399 3 18.0889V27.2474C3 42.1663 14.9237 50.4611 21.8291 54.0137C23.7551 55.0047 24.7179 55.5 26.625 55.5C28.5321 55.5 29.4949 55.0047 31.4206 54.0137C38.3262 50.4611 50.25 42.1663 50.25 27.2474V18.0889C50.25 14.399 50.25 12.5541 49.0698 10.6487C47.8896 8.74326 46.6716 8.13728 44.2356 6.92527Z" stroke="#3C50E9" stroke-width="6" stroke-linecap="round" stroke-linejoin="round"/>
</svg>
